<svg width="32" height="33" viewBox="0 0 32 33" fill="none" xmlns="http://www.w3.org/2000/svg">
<path d="M16 32.5C24.8366 32.5 32 25.3366 32 16.5C32 7.66344 24.8366 0.5 16 0.5C7.16344 0.5 0 7.66344 0 16.5C0 25.3366 7.16344 32.5 16 32.5Z" fill="#FD9468"/>
<path d="M23.9388 2.60571C25.5949 5.12559 26.5594 8.14059 26.5594 11.3813C26.5594 20.2179 19.3959 27.3813 10.5594 27.3813C7.67024 27.3813 4.96012 26.6153 2.62056 25.2757C5.48025 29.6267 10.4042 32.5 16 32.5C24.8365 32.5 32 25.3366 32 16.5C32 10.5526 28.7548 5.3634 23.9388 2.60571Z" fill="#FE7D43"/>
<path d="M16 30.4322C23.6945 30.4322 29.9322 24.1946 29.9322 16.5001C29.9322 8.80552 23.6945 2.56787 16 2.56787C8.30546 2.56787 2.06781 8.80552 2.06781 16.5001C2.06781 24.1946 8.30546 30.4322 16 30.4322Z" fill="#FFDCCE"/>
<path d="M16.182 12.2242L18.9786 15.0213C19.0792 15.1219 19.2423 15.1219 19.3429 15.0213L20.8169 13.5469C20.9175 13.4463 20.9175 13.2833 20.8169 13.1827L16.1819 8.54666C16.0814 8.44604 15.9182 8.44604 15.8177 8.54666L11.1844 13.181C11.0838 13.2816 11.0838 13.4447 11.1844 13.5452L12.6584 15.0196C12.759 15.1202 12.9221 15.1202 13.0227 15.0196L15.8177 12.2242C15.9184 12.1235 16.0814 12.1235 16.182 12.2242Z" fill="#FD9468"/>
<path d="M9.52213 14.8432L8.048 16.3177C7.94744 16.4182 7.94744 16.5813 8.048 16.6819L9.522 18.1562C9.62256 18.2569 9.78569 18.2569 9.88625 18.1562L11.3604 16.6818C11.4609 16.5812 11.4609 16.4182 11.3604 16.3176L9.88631 14.8433C9.78581 14.7427 9.62275 14.7427 9.52213 14.8432Z" fill="#FD9468"/>
<path d="M16.182 24.4535L20.8178 19.8167C20.9184 19.716 20.9184 19.5529 20.8177 19.4523L19.3428 17.9788C19.2422 17.8783 19.0792 17.8783 18.9786 17.9789L16.182 20.776C16.0814 20.8766 15.9183 20.8766 15.8178 20.776L13.0225 17.9803C12.922 17.8798 12.7591 17.8797 12.6585 17.98L11.1823 19.4525C11.0814 19.553 11.0813 19.7162 11.182 19.8169L15.8178 24.4535C15.9184 24.5541 16.0814 24.5541 16.182 24.4535Z" fill="#FD9468"/>
<path d="M22.1137 14.8441L20.6396 16.3185C20.539 16.4191 20.539 16.5822 20.6396 16.6827L22.1136 18.1571C22.2142 18.2577 22.3773 18.2577 22.4779 18.1571L23.952 16.6827C24.0526 16.5821 24.0526 16.419 23.952 16.3185L22.4779 14.8441C22.3773 14.7435 22.2143 14.7435 22.1137 14.8441Z" fill="#FD9468"/>
<path d="M17.6841 16.318L16.1821 14.8156C16.0815 14.715 15.9184 14.715 15.8178 14.8156L14.3157 16.318C14.2152 16.4185 14.2152 16.5816 14.3157 16.6821L15.8178 18.1846C15.9184 18.2853 16.0815 18.2853 16.1821 18.1846L17.6841 16.6821C17.7847 16.5815 17.7847 16.4185 17.6841 16.318Z" fill="#FD9468"/>
<path d="M25.8458 6.64282C26.3094 8.1402 26.5594 9.73151 26.5594 11.3813C26.5594 20.2178 19.3959 27.3813 10.5594 27.3813C9.25012 27.3813 7.97799 27.2228 6.76006 26.9262C9.21918 29.1071 12.4546 30.4322 16.0001 30.4322C23.6946 30.4322 29.9322 24.1945 29.9322 16.5C29.9322 12.6498 28.3704 9.16445 25.8458 6.64282Z" fill="#FFD1BE"/>
</svg>
