<svg width="32" height="33" viewBox="0 0 32 33" fill="none" xmlns="http://www.w3.org/2000/svg">
<g clip-path="url(#clip0)">
<path d="M16 31.222C24.1307 31.222 30.7219 24.6307 30.7219 16.5C30.7219 8.36931 24.1307 1.77808 16 1.77808C7.8693 1.77808 1.27806 8.36931 1.27806 16.5C1.27806 24.6307 7.8693 31.222 16 31.222Z" fill="white"/>
<path d="M23.1426 3.625C25.8284 6.292 27.4918 9.98725 27.4918 14.0713C27.4918 22.202 20.9005 28.7932 12.7699 28.7932C10.1778 28.7932 7.74273 28.1225 5.62723 26.9464C8.28841 29.5889 11.9534 31.222 16 31.222C24.1307 31.222 30.7219 24.6307 30.7219 16.5001C30.7219 10.9614 27.6628 6.13806 23.1426 3.625Z" fill="#0E1214"/>
<path d="M16 32.5C11.7263 32.5 7.70831 30.8357 4.68631 27.8137C1.66431 24.7917 0 20.7738 0 16.5C0 12.2263 1.66431 8.20831 4.68631 5.18631C7.70831 2.16431 11.7263 0.5 16 0.5C20.2738 0.5 24.2917 2.16431 27.3137 5.18631C30.3357 8.20831 32 12.2263 32 16.5C32 20.7738 30.3357 24.7917 27.3137 27.8137C24.2917 30.8357 20.2738 32.5 16 32.5ZM16 3.05619C8.58706 3.05619 2.55619 9.087 2.55619 16.5C2.55619 23.913 8.58706 29.9438 16 29.9438C23.4129 29.9438 29.4438 23.913 29.4438 16.5C29.4438 9.087 23.4129 3.05619 16 3.05619Z" fill="#BB86FC"/>
<path d="M27.3137 5.18632C27.0677 4.94032 26.8144 4.70425 26.5556 4.47644C29.1267 7.39688 30.532 11.1063 30.532 15.0321C30.532 19.3059 28.8677 23.3238 25.8457 26.3458C22.8237 29.3678 18.8058 31.0321 14.532 31.0321C10.6061 31.0321 6.89682 29.6268 3.97638 27.0558C4.20419 27.3146 4.44019 27.5678 4.68619 27.8138C7.70832 30.8357 11.7263 32.5 16 32.5C20.2738 32.5 24.2917 30.8357 27.3137 27.8137C30.3357 24.7917 32 20.7738 32 16.5C32 12.2263 30.3357 8.20832 27.3137 5.18632Z" fill="#641FBA"/>
<path d="M15.8146 22.9106L10.5802 19.2428C10.5217 19.2018 10.4498 19.2721 10.4894 19.3316L15.7313 27.1937C15.8591 27.3855 16.1409 27.3855 16.2688 27.1937L21.5107 19.3316C21.5503 19.2721 21.4784 19.2018 21.4199 19.2428L16.1854 22.9106C16.0741 22.9885 15.9259 22.9885 15.8146 22.9106Z" fill="#0E1214"/>
<path d="M22.1961 16.0041L16.2826 5.32763C16.1596 5.10563 15.8404 5.10563 15.7174 5.32763L9.80389 16.0041H22.1961Z" fill="#0E1214"/>
<path d="M16 16.0041H22.196L16.2826 5.32763C16.2211 5.21663 16.1105 5.16113 16 5.16113V16.0041Z" fill="#0E1214"/>
<path d="M15.8146 20.5639L9.90194 16.4209C9.71838 16.2923 9.71838 16.0204 9.90194 15.8918L15.8146 11.7488C15.9259 11.6708 16.0741 11.6708 16.1854 11.7488L22.0981 15.8918C22.2816 16.0204 22.2816 16.2923 22.0981 16.4209L16.1854 20.5639C16.0741 20.6419 15.9259 20.6419 15.8146 20.5639Z" fill="#0E1214"/>
<path d="M16.1854 20.5639L22.0981 16.4209C22.2816 16.2923 22.2816 16.0204 22.0981 15.8918L16.1854 11.7488C16.1298 11.7098 16.0649 11.6903 16 11.6903V20.6224C16.0649 20.6224 16.1298 20.6029 16.1854 20.5639Z" fill="#0E1214"/>
<path d="M20.4714 15.5579C20.5672 15.6978 20.5404 15.8986 20.3907 16.0041H22.196L16.2826 5.32763C16.2211 5.21663 16.1106 5.16113 16.0001 5.16113V7.48495L20.4714 15.5579Z" fill="#0E1214"/>
<path d="M16.2687 27.1937L21.5106 19.3316C21.5503 19.2721 21.4783 19.2018 21.4198 19.2428L16.1854 22.9106C16.1298 22.9496 16.0649 22.9691 16 22.9691V27.3375C16.1024 27.3376 16.2049 27.2896 16.2687 27.1937Z" fill="#0E1214"/>
<path d="M22.0981 15.8919L19.7421 14.2411L20.4714 15.558C20.5674 15.6981 20.5404 15.8995 20.3901 16.0048L16 19.0808V20.6225C16.0649 20.6225 16.1297 20.603 16.1854 20.564L22.0981 16.421C22.2816 16.2924 22.2816 16.0205 22.0981 15.8919Z" fill="#453E43"/>
<path d="M21.4198 19.2428L18.6549 21.1802L16 25.1622V27.3376C16.1024 27.3376 16.2048 27.2896 16.2687 27.1938L21.5106 19.3316C21.5503 19.2721 21.4783 19.2018 21.4198 19.2428Z" fill="#453E43"/>
</g>
<defs>
<clipPath id="clip0">
<rect width="32" height="32" fill="white" transform="translate(0 0.5)"/>
</clipPath>
</defs>
</svg>
