<svg width="21" height="23" viewBox="0 0 21 23" fill="none" xmlns="http://www.w3.org/2000/svg">
<path d="M13.7495 22.2646H0.968445V1.68344C0.968445 0.845664 1.64745 0.166656 2.48523 0.166656H12.2327C13.0704 0.166656 13.7495 0.845664 13.7495 1.68344V22.2646Z" fill="white"/>
<path d="M13.7799 1.68344C13.7799 0.845664 13.1009 0.166656 12.2631 0.166656H7.35895V22.2646H13.7799V1.68344Z" fill="white"/>
<path d="M2.44769 2.04227H12.2703V7.66485H2.44769V2.04227Z" fill="#0E1214"/>
<path d="M7.35895 2.04227H12.3007V7.66485H7.35895V2.04227Z" fill="#0E1214"/>
<path d="M16.5298 0.691376L14.8982 1.90279L16.3914 3.91415V8.07129H18.0172V18.5374C18.0172 18.8923 17.7285 19.181 17.3736 19.181C17.0188 19.181 16.7301 18.8923 16.7301 18.5374V10.1993H13.7495V12.2316H14.6978V18.5374C14.6978 20.0129 15.8981 21.2132 17.3736 21.2132C18.8492 21.2132 20.0495 20.0129 20.0495 18.5374V5.43199L16.5298 0.691376Z" fill="white"/>
<path d="M17.3737 1.82791V8.07129H18.0172V18.5374C18.0172 18.8923 17.7285 19.181 17.3737 19.181V21.2132C18.8492 21.2132 20.0495 20.0129 20.0495 18.5374V5.432L17.3737 1.82791Z" fill="#BB86FC"/>
<path d="M9.7212 15.3586C9.7212 16.6634 8.66379 17.7208 7.35896 17.7208C6.05414 17.7208 4.99646 16.6634 4.99646 15.3586C4.99646 14.0538 7.35896 11.1197 7.35896 11.1197C7.35896 11.1197 9.7212 14.0538 9.7212 15.3586Z" fill="#BB86FC"/>
<path d="M7.35892 11.1197L7.32849 17.7203C7.33855 17.7203 7.3486 17.7208 7.35892 17.7208C8.66349 17.7208 9.72116 16.6634 9.72116 15.3586C9.72116 14.0538 7.35892 11.1197 7.35892 11.1197Z" fill="#BB86FC"/>
</svg>
