<svg width="26" height="26" viewBox="0 0 26 26" fill="none" xmlns="http://www.w3.org/2000/svg">
<path d="M13 0C5.83213 0 0 5.83213 0 13C0 20.1679 5.83213 26 13 26C20.1679 26 26 20.1679 26 13C26 5.83213 20.1679 0 13 0ZM22.204 6.34238C20.8032 6.89813 19.3635 7.3385 17.8864 7.62775C17.2591 5.56237 16.263 3.58475 14.8948 1.79562C17.8913 2.30262 20.488 3.978 22.204 6.34238ZM16.679 16.5425C14.2382 16.2078 11.7601 16.2078 9.31938 16.5425C8.81888 14.2123 8.81725 11.8007 9.31612 9.46887C10.5284 9.63463 11.7536 9.75 13 9.75C14.2464 9.75 15.47 9.63463 16.6822 9.46887C17.1811 11.8007 17.1795 14.2123 16.679 16.5425ZM16.2581 7.87962C14.0953 8.15913 11.9031 8.15913 9.74025 7.87962C10.4065 5.78988 11.4952 3.809 13 2.054C14.5048 3.809 15.5919 5.78988 16.2581 7.87962ZM11.102 1.79562C9.73375 3.58475 8.73925 5.56237 8.112 7.62775C6.6365 7.3385 5.19675 6.89813 3.796 6.34238C5.51038 3.978 8.10712 2.30262 11.102 1.79562ZM1.625 13C1.625 11.1053 2.09788 9.321 2.92013 7.748C4.47363 8.38663 6.06775 8.88875 7.70738 9.21863C7.18575 11.7162 7.18575 14.2951 7.709 16.7944C6.071 17.121 4.47038 17.6199 2.92013 18.2569C2.09788 16.6806 1.625 14.8964 1.625 13ZM3.796 19.6576C5.19675 19.1019 6.6365 18.6615 8.112 18.3722C8.73925 20.4376 9.73538 22.4153 11.1036 24.2044C8.10713 23.6974 5.51038 22.022 3.796 19.6576ZM9.74187 18.1204C11.9031 17.8409 14.0953 17.8409 16.2581 18.1204C15.5919 20.2101 14.5031 22.191 13 23.946C11.4952 22.191 10.4081 20.2101 9.74187 18.1204ZM14.8948 24.2044C16.263 22.4153 17.2591 20.4376 17.8864 18.3722C19.3619 18.6615 20.8032 19.1035 22.204 19.6576C20.488 22.022 17.8913 23.6974 14.8948 24.2044ZM18.2894 16.7911C18.8126 14.2935 18.8142 11.7146 18.291 9.217C19.9306 8.88713 21.5264 8.38663 23.0799 7.74638C23.9021 9.321 24.375 11.1053 24.375 13C24.375 14.8964 23.9021 16.6806 23.0799 18.2536C21.5296 17.6182 19.929 17.1194 18.2894 16.7911Z" fill="white"/>
</svg>
