<svg width="32" height="32" viewBox="0 0 32 32" fill="none" xmlns="http://www.w3.org/2000/svg">
<path d="M16 1.60001C8.04127 1.60001 1.59998 8.04046 1.59998 16C1.59998 23.9587 8.04043 30.4 16 30.4C23.9587 30.4 30.4 23.9595 30.4 16C30.4 8.04131 23.9595 1.60001 16 1.60001ZM16 28.48C9.11852 28.48 3.51996 22.8815 3.51996 16C3.51996 9.11849 9.11852 3.51999 16 3.51999C22.8814 3.51999 28.48 9.11855 28.48 16C28.48 22.8815 22.8814 28.48 16 28.48Z" fill="white"/>
<path d="M15.5942 19.4969C14.8366 19.4969 14.2233 20.1282 14.2233 20.8859C14.2233 21.6254 14.8185 22.2749 15.5942 22.2749C16.3699 22.2749 16.9832 21.6254 16.9832 20.8859C16.9832 20.1282 16.3518 19.4969 15.5942 19.4969Z" fill="#BB86FC"/>
<path d="M15.8286 8.97992C13.3934 8.97992 12.2749 10.4231 12.2749 11.3972C12.2749 12.1007 12.8703 12.4254 13.3573 12.4254C14.3314 12.4254 13.9346 11.0364 15.7746 11.0364C16.6766 11.0364 17.3981 11.4332 17.3981 12.2631C17.3981 13.2372 16.388 13.7965 15.7926 14.3015C15.2695 14.7525 14.584 15.4921 14.584 17.0435C14.584 17.9815 14.8365 18.2522 15.5761 18.2522C16.4601 18.2522 16.6405 17.8553 16.6405 17.5125C16.6405 16.5746 16.6585 16.0334 17.6506 15.2577C18.1377 14.8789 19.671 13.6522 19.671 11.9565C19.671 10.2608 18.1377 8.97992 15.8286 8.97992Z" fill="white"/>
</svg>
